  0
SECTION
  2
HEADER
  9
$ACADVER
  1
AC1012
  9
$DWGCODEPAGE
  3
ansi_1252
  9
$INSBASE
 10
0.0
 20
0.0
 30
0.0
  9
$EXTMIN
 10
1.000000000000000E+20
 20
1.000000000000000E+20
 30
1.000000000000000E+20
  9
$EXTMAX
 10
-1.000000000000000E+20
 20
-1.000000000000000E+20
 30
-1.000000000000000E+20
  9
$LIMMIN
 10
0.0
 20
0.0
  9
$LIMMAX
 10
12.0
 20
9.0
  9
$ORTHOMODE
 70
     0
  9
$REGENMODE
 70
     1
  9
$FILLMODE
 70
     1
  9
$QTEXTMODE
 70
     0
  9
$MIRRTEXT
 70
     1
  9
$DRAGMODE
 70
     2
  9
$LTSCALE
 40
1.0
  9
$OSMODE
 70
    37
  9
$ATTMODE
 70
     1
  9
$TEXTSIZE
 40
0.2
  9
$TRACEWID
 40
0.05
  9
$TEXTSTYLE
  7
STANDARD
  9
$CLAYER
  8
0
  9
$CELTYPE
  6
BYLAYER
  9
$CECOLOR
 62
   256
  9
$CELTSCALE
 40
1.0
  9
$DELOBJ
 70
     1
  9
$DISPSILH
 70
     0
  9
$DIMSCALE
 40
1.0
  9
$DIMASZ
 40
0.18
  9
$DIMEXO
 40
0.0625
  9
$DIMDLI
 40
0.38
  9
$DIMRND
 40
0.0
  9
$DIMDLE
 40
0.0
  9
$DIMEXE
 40
0.18
  9
$DIMTP
 40
0.0
  9
$DIMTM
 40
0.0
  9
$DIMTXT
 40
0.18
  9
$DIMCEN
 40
0.09
  9
$DIMTSZ
 40
0.0
  9
$DIMTOL
 70
     0
  9
$DIMLIM
 70
     0
  9
$DIMTIH
 70
     1
  9
$DIMTOH
 70
     1
  9
$DIMSE1
 70
     0
  9
$DIMSE2
 70
     0
  9
$DIMTAD
 70
     0
  9
$DIMZIN
 70
     0
  9
$DIMBLK
  1

  9
$DIMASO
 70
     1
  9
$DIMSHO
 70
     1
  9
$DIMPOST
  1

  9
$DIMAPOST
  1

  9
$DIMALT
 70
     0
  9
$DIMALTD
 70
     2
  9
$DIMALTF
 40
25.4
  9
$DIMLFAC
 40
1.0
  9
$DIMTOFL
 70
     0
  9
$DIMTVP
 40
0.0
  9
$DIMTIX
 70
     0
  9
$DIMSOXD
 70
     0
  9
$DIMSAH
 70
     0
  9
$DIMBLK1
  1

  9
$DIMBLK2
  1

  9
$DIMSTYLE
  2
STANDARD
  9
$DIMCLRD
 70
     0
  9
$DIMCLRE
 70
     0
  9
$DIMCLRT
 70
     0
  9
$DIMTFAC
 40
1.0
  9
$DIMGAP
 40
0.09
  9
$DIMJUST
 70
     0
  9
$DIMSD1
 70
     0
  9
$DIMSD2
 70
     0
  9
$DIMTOLJ
 70
     1
  9
$DIMTZIN
 70
     0
  9
$DIMALTZ
 70
     0
  9
$DIMALTTZ
 70
     0
  9
$DIMFIT
 70
     3
  9
$DIMUPT
 70
     0
  9
$DIMUNIT
 70
     2
  9
$DIMDEC
 70
     4
  9
$DIMTDEC
 70
     4
  9
$DIMALTU
 70
     2
  9
$DIMALTTD
 70
     2
  9
$DIMTXSTY
  7
STANDARD
  9
$DIMAUNIT
 70
     0
  9
$LUNITS
 70
     2
  9
$LUPREC
 70
     4
  9
$SKETCHINC
 40
0.1
  9
$FILLETRAD
 40
0.5
  9
$AUNITS
 70
     0
  9
$AUPREC
 70
     0
  9
$MENU
  1
.
  9
$ELEVATION
 40
0.0
  9
$PELEVATION
 40
0.0
  9
$THICKNESS
 40
0.0
  9
$LIMCHECK
 70
     0
  9
$CHAMFERA
 40
0.5
  9
$CHAMFERB
 40
0.5
  9
$CHAMFERC
 40
1.0
  9
$CHAMFERD
 40
0.0
  9
$SKPOLY
 70
     0
  9
$TDCREATE
 40
2457389.829792292
  9
$TDUPDATE
 40
2457389.829792303
  9
$TDINDWG
 40
0.0000000116
  9
$TDUSRTIMER
 40
0.0000000116
  9
$USRTIMER
 70
     1
  9
$ANGBASE
 50
0.0
  9
$ANGDIR
 70
     0
  9
$PDMODE
 70
     0
  9
$PDSIZE
 40
0.0
  9
$PLINEWID
 40
0.0
  9
$COORDS
 70
     1
  9
$SPLFRAME
 70
     0
  9
$SPLINETYPE
 70
     6
  9
$SPLINESEGS
 70
     8
  9
$ATTDIA
 70
     0
  9
$ATTREQ
 70
     1
  9
$HANDLING
 70
     1
  9
$HANDSEED
  5
5A
  9
$SURFTAB1
 70
     6
  9
$SURFTAB2
 70
     6
  9
$SURFTYPE
 70
     6
  9
$SURFU
 70
     6
  9
$SURFV
 70
     6
  9
$UCSNAME
  2

  9
$UCSORG
 10
0.0
 20
0.0
 30
0.0
  9
$UCSXDIR
 10
1.0
 20
0.0
 30
0.0
  9
$UCSYDIR
 10
0.0
 20
1.0
 30
0.0
  9
$PUCSNAME
  2

  9
$PUCSORG
 10
0.0
 20
0.0
 30
0.0
  9
$PUCSXDIR
 10
1.0
 20
0.0
 30
0.0
  9
$PUCSYDIR
 10
0.0
 20
1.0
 30
0.0
  9
$USERI1
 70
     0
  9
$USERI2
 70
     0
  9
$USERI3
 70
     0
  9
$USERI4
 70
     0
  9
$USERI5
 70
     0
  9
$USERR1
 40
0.0
  9
$USERR2
 40
0.0
  9
$USERR3
 40
0.0
  9
$USERR4
 40
0.0
  9
$USERR5
 40
0.0
  9
$WORLDVIEW
 70
     1
  9
$SHADEDGE
 70
     3
  9
$SHADEDIF
 70
    70
  9
$TILEMODE
 70
     1
  9
$MAXACTVP
 70
    64
  9
$PINSBASE
 10
0.0
 20
0.0
 30
0.0
  9
$PLIMCHECK
 70
     0
  9
$PEXTMIN
 10
1.000000000000000E+20
 20
1.000000000000000E+20
 30
1.000000000000000E+20
  9
$PEXTMAX
 10
-1.000000000000000E+20
 20
-1.000000000000000E+20
 30
-1.000000000000000E+20
  9
$PLIMMIN
 10
0.0
 20
0.0
  9
$PLIMMAX
 10
12.0
 20
9.0
  9
$UNITMODE
 70
     0
  9
$VISRETAIN
 70
     1
  9
$PLINEGEN
 70
     0
  9
$PSLTSCALE
 70
     1
  9
$TREEDEPTH
 70
  3020
  9
$PICKSTYLE
 70
     1
  9
$CMLSTYLE
  2
STANDARD
  9
$CMLJUST
 70
     0
  9
$CMLSCALE
 40
1.0
  9
$SAVEIMAGES
 70
     1
  0
ENDSEC
  0
SECTION
  2
CLASSES
  0
CLASS
  1
ACDBDICTIONARYWDFLT
  2
AcDbDictionaryWithDefault
  3
ObjectDBX Classes
 90
    32768
280
     0
281
     0
  0
CLASS
  1
VISUALSTYLE
  2
AcDbVisualStyle
  3
ObjectDBX Classes
 90
     4095
280
     0
281
     0
  0
CLASS
  1
XRECORD
  2
AcDbXrecord
  3
AutoCAD 2000
 90
    32768
280
     0
281
     0
  0
CLASS
  1
LWPOLYLINE
  2
AcDbPolyline
  3
AutoCAD 2000
 90
    32768
280
     0
281
     1
  0
CLASS
  1
HATCH
  2
AcDbHatch
  3
AutoCAD 2000
 90
    32768
280
     0
281
     1
  0
CLASS
  1
ACDBPLACEHOLDER
  2
AcDbPlaceHolder
  3
ObjectDBX Classes
 90
        0
280
     0
281
     0
  0
CLASS
  1
LAYOUT
  2
AcDbLayout
  3
ObjectDBX Classes
 90
        0
280
     0
281
     0
  0
ENDSEC
  0
SECTION
  2
TABLES
  0
TABLE
  2
VPORT
  5
8
330
0
100
AcDbSymbolTable
 70
     1
  0
VPORT
  5
29
330
8
100
AcDbSymbolTableRecord
100
AcDbViewportTableRecord
  2
*ACTIVE
 70
     0
 10
0.0
 20
0.0
 11
1.0
 21
1.0
 12
0.0
 22
0.0
 13
0.0
 23
0.0
 14
0.5
 24
0.5
 15
0.5
 25
0.5
 16
0.0
 26
0.0
 36
1.0
 17
105.0078884286091
 27
148.5053195158251
 37
0.0
 40
297.0106390316502
 41
0.7070984983633483
 42
50.0
 43
0.0
 44
0.0
 50
0.0
 51
0.0
 71
     0
 72
   100
 73
     1
 74
     3
 75
     0
 76
     0
 77
     0
 78
     0
  0
ENDTAB
  0
TABLE
  2
LTYPE
  5
5
330
0
100
AcDbSymbolTable
 70
     1
  0
LTYPE
  5
14
330
5
100
AcDbSymbolTableRecord
100
AcDbLinetypeTableRecord
  2
BYBLOCK
 70
     0
  3

 72
    65
 73
     0
 40
0.0
  0
LTYPE
  5
15
330
5
100
AcDbSymbolTableRecord
100
AcDbLinetypeTableRecord
  2
BYLAYER
 70
     0
  3

 72
    65
 73
     0
 40
0.0
  0
LTYPE
  5
16
330
5
100
AcDbSymbolTableRecord
100
AcDbLinetypeTableRecord
  2
CONTINUOUS
 70
     0
  3
Solid line
 72
    65
 73
     0
 40
0.0
  0
ENDTAB
  0
TABLE
  2
LAYER
  5
2
330
0
100
AcDbSymbolTable
 70
     3
  0
LAYER
  5
10
330
2
100
AcDbSymbolTableRecord
100
AcDbLayerTableRecord
  2
0
 70
     0
 62
     7
  6
CONTINUOUS
  0
LAYER
  5
3B
330
2
100
AcDbSymbolTableRecord
100
AcDbLayerTableRecord
  2
BASE
 70
     0
 62
     7
  6
CONTINUOUS
  0
LAYER
  5
45
330
2
100
AcDbSymbolTableRecord
100
AcDbLayerTableRecord
  2
TOP
 70
     0
 62
     7
  6
CONTINUOUS
  0
ENDTAB
  0
TABLE
  2
STYLE
  5
3
330
0
100
AcDbSymbolTable
 70
     1
  0
STYLE
  5
11
330
3
100
AcDbSymbolTableRecord
100
AcDbTextStyleTableRecord
  2
STANDARD
 70
     0
 40
0.0
 41
1.0
 50
0.0
 71
     0
 42
0.2
  3
txt
  4

  0
ENDTAB
  0
TABLE
  2
VIEW
  5
6
330
0
100
AcDbSymbolTable
 70
     0
  0
ENDTAB
  0
TABLE
  2
UCS
  5
7
330
0
100
AcDbSymbolTable
 70
     0
  0
ENDTAB
  0
TABLE
  2
APPID
  5
9
330
0
100
AcDbSymbolTable
 70
     1
  0
APPID
  5
12
330
9
100
AcDbSymbolTableRecord
100
AcDbRegAppTableRecord
  2
ACAD
 70
     0
  0
ENDTAB
  0
TABLE
  2
DIMSTYLE
  5
A
330
0
100
AcDbSymbolTable
 70
     1
  0
DIMSTYLE
105
27
330
A
100
AcDbSymbolTableRecord
100
AcDbDimStyleTableRecord
  2
STANDARD
 70
     0
  3

  4

  5

  6

  7

 40
1.0
 41
0.18
 42
0.0625
 43
0.38
 44
0.18
 45
0.0
 46
0.0
 47
0.0
 48
0.0
140
0.18
141
0.09
142
0.0
143
25.4
144
1.0
145
0.0
146
1.0
147
0.09
 71
     0
 72
     0
 73
     1
 74
     1
 75
     0
 76
     0
 77
     0
 78
     0
170
     0
171
     2
172
     0
173
     0
174
     0
175
     0
176
     0
177
     0
178
     0
270
     2
271
     4
272
     4
273
     2
274
     2
340
11
275
     0
280
     0
281
     0
282
     0
283
     1
284
     0
285
     0
286
     0
287
     3
288
     0
  0
ENDTAB
  0
TABLE
  2
BLOCK_RECORD
  5
1
330
0
100
AcDbSymbolTable
 70
     1
  0
BLOCK_RECORD
  5
1F
330
1
100
AcDbSymbolTableRecord
100
AcDbBlockTableRecord
  2
*MODEL_SPACE
  0
BLOCK_RECORD
  5
1B
330
1
100
AcDbSymbolTableRecord
100
AcDbBlockTableRecord
  2
*PAPER_SPACE
  0
ENDTAB
  0
ENDSEC
  0
SECTION
  2
BLOCKS
  0
BLOCK
  5
20
330
1F
100
AcDbEntity
  8
0
100
AcDbBlockBegin
  2
*MODEL_SPACE
 70
     0
 71
     0
 10
0.0
 20
0.0
 30
0.0
  3
*MODEL_SPACE
  1

  0
ENDBLK
  5
21
330
1F
100
AcDbEntity
  8
0
100
AcDbBlockEnd
  0
BLOCK
  5
1C
330
1B
100
AcDbEntity
 67
     1
  8
0
100
AcDbBlockBegin
  2
*PAPER_SPACE
 70
     0
 71
     0
 10
0.0
 20
0.0
 30
0.0
  3
*PAPER_SPACE
  1

  0
ENDBLK
  5
1D
330
1B
100
AcDbEntity
 67
     1
  8
0
100
AcDbBlockEnd
  0
ENDSEC
  0
SECTION
  2
ENTITIES
  0
SPLINE
  5
3C
330
1F
100
AcDbEntity
  8
BASE
 62
   250
100
AcDbSpline
210
0.0
220
0.0
230
1.0
 70
    11
 71
     3
 72
    47
 73
    43
 74
     0
 42
0.0000000001
 43
0.0000000001
 40
0.0
 40
0.0
 40
0.0
 40
0.0
 40
1.0
 40
1.0
 40
1.0
 40
2.0
 40
2.0
 40
2.0
 40
3.0
 40
3.0
 40
3.0
 40
4.0
 40
4.0
 40
4.0
 40
5.0
 40
5.0
 40
5.0
 40
6.0
 40
6.0
 40
6.0
 40
7.0
 40
7.0
 40
7.0
 40
8.0
 40
8.0
 40
8.0
 40
9.0
 40
9.0
 40
9.0
 40
10.0
 40
10.0
 40
10.0
 40
11.0
 40
11.0
 40
11.0
 40
12.0
 40
12.0
 40
12.0
 40
13.0
 40
13.0
 40
13.0
 40
14.0
 40
14.0
 40
14.0
 40
14.0
 10
43.92221136054723
 20
105.0712781855377
 30
0.0
 10
43.92221136054723
 20
105.0712781855377
 30
0.0
 10
43.92238361532149
 20
199.0934461307822
 30
0.0
 10
43.92238361532149
 20
199.0934461307822
 30
0.0
 10
43.92238361532149
 20
199.2071342817954
 30
0.0
 10
43.94133164049036
 20
199.3163438086779
 30
0.0
 10
43.97647161443991
 20
199.4183186350413
 30
0.0
 10
44.13184542082468
 20
201.4609157482459
 30
0.0
 10
45.8419908197027
 20
203.0859672886382
 30
0.0
 10
47.92179496414803
 20
203.0990586514822
 30
0.0
 10
47.92179496414803
 20
203.0990586514822
 30
0.0
 10
91.93392331686027
 20
203.0990586514822
 30
0.0
 10
91.93392331686027
 20
203.0990586514822
 30
0.0
 10
91.93392331686027
 20
203.0990586514822
 30
0.0
 10
91.93392331686027
 20
203.0990586514822
 30
0.0
 10
91.93392331686027
 20
203.0990586514822
 30
0.0
 10
91.93392331686027
 20
203.0990586514822
 30
0.0
 10
91.97595348178032
 20
203.0990586514822
 30
0.0
 10
91.97595348178032
 20
203.0990586514822
 30
0.0
 10
94.17323538227267
 20
203.0990586514822
 30
0.0
 10
95.96055092002028
 20
201.3117431137346
 30
0.0
 10
95.96055092002028
 20
199.1148057227907
 30
0.0
 10
95.96055092002028
 20
199.1148057227907
 30
0.0
 10
95.96037866524603
 20
105.0712781855377
 30
0.0
 10
95.96037866524603
 20
105.0712781855377
 30
0.0
 10
95.94694279285355
 20
102.985272869219
 30
0.0
 10
94.3218912524612
 20
101.2751274703409
 30
0.0
 10
92.27929413925656
 20
101.1197536639562
 30
0.0
 10
92.1776638224417
 20
101.0846136900066
 30
0.0
 10
92.06810978601075
 20
101.0656656648378
 30
0.0
 10
91.95442163499752
 20
101.0656656648378
 30
0.0
 10
91.95442163499752
 20
101.0656656648378
 30
0.0
 10
47.92816839079574
 20
101.0656656648378
 30
0.0
 10
47.92816839079574
 20
101.0656656648378
 30
0.0
 10
47.81000161565167
 20
101.0656656648378
 30
0.0
 10
47.69631346463842
 20
101.0863362377493
 30
0.0
 10
47.59089354278978
 20
101.1238877785385
 30
0.0
 10
45.68541122989809
 20
101.2954535337039
 30
0.0
 10
44.15268824851044
 20
102.8281765150916
 30
0.0
 10
43.98077798379647
 20
104.7340033375318
 30
0.0
 10
43.94288193345873
 20
104.8394232593804
 30
0.0
 10
43.92221136054723
 20
104.9527669008451
 30
0.0
 10
43.92221136054723
 20
105.0712781855377
 30
0.0
  0
SPLINE
  5
3D
330
1F
100
AcDbEntity
  8
BASE
 62
   250
100
AcDbSpline
210
0.0
220
0.0
230
1.0
 70
    11
 71
     3
 72
    17
 73
    13
 74
     0
 42
0.0000000001
 43
0.0000000001
 40
0.0
 40
0.0
 40
0.0
 40
0.0
 40
1.0
 40
1.0
 40
1.0
 40
2.0
 40
2.0
 40
2.0
 40
3.0
 40
3.0
 40
3.0
 40
4.0
 40
4.0
 40
4.0
 40
4.0
 10
48.94412704939592
 20
164.8660779752765
 30
0.0
 10
49.63383516554293
 20
164.8660779752765
 30
0.0
 10
50.19400769144455
 20
165.4238389343385
 30
0.0
 10
50.19400769144455
 20
166.1159586173252
 30
0.0
 10
50.19400769144455
 20
166.8080783003119
 30
0.0
 10
49.63383516554293
 20
167.3658392593738
 30
0.0
 10
48.94412704939592
 20
167.3658392593738
 30
0.0
 10
48.25407442370037
 20
167.3658392593738
 30
0.0
 10
47.69390189779875
 20
166.8080783003119
 30
0.0
 10
47.69390189779875
 20
166.1159586173252
 30
0.0
 10
47.69390189779875
 20
165.4238389343385
 30
0.0
 10
48.25407442370037
 20
164.8660779752765
 30
0.0
 10
48.94412704939592
 20
164.8660779752765
 30
0.0
  0
SPLINE
  5
3E
330
1F
100
AcDbEntity
  8
BASE
 62
   250
100
AcDbSpline
210
0.0
220
0.0
230
1.0
 70
    11
 71
     3
 72
    17
 73
    13
 74
     0
 42
0.0000000001
 43
0.0000000001
 40
0.0
 40
0.0
 40
0.0
 40
0.0
 40
1.0
 40
1.0
 40
1.0
 40
2.0
 40
2.0
 40
2.0
 40
3.0
 40
3.0
 40
3.0
 40
4.0
 40
4.0
 40
4.0
 40
4.0
 10
90.98083765086591
 20
104.8797308765578
 30
0.0
 10
91.67054576701292
 20
104.8797308765578
 30
0.0
 10
92.23071829291455
 20
105.4374918356198
 30
0.0
 10
92.23071829291455
 20
106.1296115186065
 30
0.0
 10
92.23071829291455
 20
106.8217312015932
 30
0.0
 10
91.67054576701292
 20
107.3794921606551
 30
0.0
 10
90.98083765086591
 20
107.3794921606551
 30
0.0
 10
90.29112953471889
 20
107.3794921606551
 30
0.0
 10
89.73095700881727
 20
106.8217312015932
 30
0.0
 10
89.73095700881727
 20
106.1296115186065
 30
0.0
 10
89.73095700881727
 20
105.4374918356198
 30
0.0
 10
90.29112953471889
 20
104.8797308765578
 30
0.0
 10
90.98083765086591
 20
104.8797308765578
 30
0.0
  0
SPLINE
  5
3F
330
1F
100
AcDbEntity
  8
BASE
 62
   250
100
AcDbSpline
210
0.0
220
0.0
230
1.0
 70
    11
 71
     3
 72
    17
 73
    13
 74
     0
 42
0.0000000001
 43
0.0000000001
 40
0.0
 40
0.0
 40
0.0
 40
0.0
 40
1.0
 40
1.0
 40
1.0
 40
2.0
 40
2.0
 40
2.0
 40
3.0
 40
3.0
 40
3.0
 40
4.0
 40
4.0
 40
4.0
 40
4.0
 10
48.94412704939592
 20
104.8797308765578
 30
0.0
 10
49.63383516554293
 20
104.8797308765578
 30
0.0
 10
50.19366318189603
 20
105.4374918356198
 30
0.0
 10
50.19366318189603
 20
106.1296115186065
 30
0.0
 10
50.19366318189603
 20
106.8217312015932
 30
0.0
 10
49.63383516554293
 20
107.3794921606551
 30
0.0
 10
48.94412704939592
 20
107.3794921606551
 30
0.0
 10
48.25407442370037
 20
107.3794921606551
 30
0.0
 10
47.69424640734727
 20
106.8217312015932
 30
0.0
 10
47.69424640734727
 20
106.1296115186065
 30
0.0
 10
47.69424640734727
 20
105.4374918356198
 30
0.0
 10
48.25407442370037
 20
104.8797308765578
 30
0.0
 10
48.94412704939592
 20
104.8797308765578
 30
0.0
  0
SPLINE
  5
40
330
1F
100
AcDbEntity
  8
BASE
 62
   250
100
AcDbSpline
210
0.0
220
0.0
230
1.0
 70
    11
 71
     3
 72
    17
 73
    13
 74
     0
 42
0.0000000001
 43
0.0000000001
 40
0.0
 40
0.0
 40
0.0
 40
0.0
 40
1.0
 40
1.0
 40
1.0
 40
2.0
 40
2.0
 40
2.0
 40
3.0
 40
3.0
 40
3.0
 40
4.0
 40
4.0
 40
4.0
 40
4.0
 10
90.98100990564016
 20
196.869981504602
 30
0.0
 10
91.67071802178718
 20
196.869981504602
 30
0.0
 10
92.23089054768882
 20
197.4277424636639
 30
0.0
 10
92.23089054768882
 20
198.1198621466506
 30
0.0
 10
92.23089054768882
 20
198.8119818296373
 30
0.0
 10
91.67071802178718
 20
199.3697427886992
 30
0.0
 10
90.98100990564016
 20
199.3697427886992
 30
0.0
 10
90.29130178949315
 20
199.3697427886992
 30
0.0
 10
89.73112926359153
 20
198.8119818296373
 30
0.0
 10
89.73112926359153
 20
198.1198621466506
 30
0.0
 10
89.73112926359153
 20
197.4277424636639
 30
0.0
 10
90.29130178949315
 20
196.869981504602
 30
0.0
 10
90.98100990564016
 20
196.869981504602
 30
0.0
  0
SPLINE
  5
41
330
1F
100
AcDbEntity
  8
BASE
 62
   250
100
AcDbSpline
210
0.0
220
0.0
230
1.0
 70
    11
 71
     3
 72
    17
 73
    13
 74
     0
 42
0.0000000001
 43
0.0000000001
 40
0.0
 40
0.0
 40
0.0
 40
0.0
 40
1.0
 40
1.0
 40
1.0
 40
2.0
 40
2.0
 40
2.0
 40
3.0
 40
3.0
 40
3.0
 40
4.0
 40
4.0
 40
4.0
 40
4.0
 10
48.94429930417018
 20
196.869981504602
 30
0.0
 10
49.6340074203172
 20
196.869981504602
 30
0.0
 10
50.19417994621882
 20
197.4277424636639
 30
0.0
 10
50.19417994621882
 20
198.1198621466506
 30
0.0
 10
50.19417994621882
 20
198.8119818296373
 30
0.0
 10
49.6340074203172
 20
199.3697427886992
 30
0.0
 10
48.94429930417018
 20
199.3697427886992
 30
0.0
 10
48.25424667847464
 20
199.3697427886992
 30
0.0
 10
47.69407415257301
 20
198.8119818296373
 30
0.0
 10
47.69407415257301
 20
198.1198621466506
 30
0.0
 10
47.69407415257301
 20
197.4277424636639
 30
0.0
 10
48.25424667847464
 20
196.869981504602
 30
0.0
 10
48.94429930417018
 20
196.869981504602
 30
0.0
  0
SPLINE
  5
42
330
1F
100
AcDbEntity
  8
BASE
 62
   250
100
AcDbSpline
210
0.0
220
0.0
230
1.0
 70
    11
 71
     3
 72
    17
 73
    13
 74
     0
 42
0.0000000001
 43
0.0000000001
 40
0.0
 40
0.0
 40
0.0
 40
0.0
 40
1.0
 40
1.0
 40
1.0
 40
2.0
 40
2.0
 40
2.0
 40
3.0
 40
3.0
 40
3.0
 40
4.0
 40
4.0
 40
4.0
 40
4.0
 10
70.16712102195476
 20
205.336648169152
 30
0.0
 10
70.85682913810177
 20
205.336648169152
 30
0.0
 10
71.4170016640034
 20
205.8944091282139
 30
0.0
 10
71.4170016640034
 20
206.5865288112006
 30
0.0
 10
71.4170016640034
 20
207.2786484941873
 30
0.0
 10
70.85682913810177
 20
207.8364094532492
 30
0.0
 10
70.16712102195476
 20
207.8364094532492
 30
0.0
 10
69.47775741535627
 20
207.8364094532492
 30
0.0
 10
68.9172403799061
 20
207.2786484941873
 30
0.0
 10
68.9172403799061
 20
206.5865288112006
 30
0.0
 10
68.9172403799061
 20
205.8944091282139
 30
0.0
 10
69.47775741535627
 20
205.336648169152
 30
0.0
 10
70.16712102195476
 20
205.336648169152
 30
0.0
  0
SPLINE
  5
43
330
1F
100
AcDbEntity
  8
BASE
 62
   250
100
AcDbSpline
210
0.0
220
0.0
230
1.0
 70
    11
 71
     3
 72
    17
 73
    13
 74
     0
 42
0.0000000001
 43
0.0000000001
 40
0.0
 40
0.0
 40
0.0
 40
0.0
 40
1.0
 40
1.0
 40
1.0
 40
2.0
 40
2.0
 40
2.0
 40
3.0
 40
3.0
 40
3.0
 40
4.0
 40
4.0
 40
4.0
 40
4.0
 10
70.16694876718049
 20
96.32797035352218
 30
0.0
 10
70.8566568833275
 20
96.32797035352218
 30
0.0
 10
71.41682940922912
 20
96.88607582213265
 30
0.0
 10
71.41682940922912
 20
97.57854001466787
 30
0.0
 10
71.41682940922912
 20
98.27031518810604
 30
0.0
 10
70.8566568833275
 20
98.82842065671652
 30
0.0
 10
70.16694876718049
 20
98.82842065671652
 30
0.0
 10
69.477585160582
 20
98.82842065671652
 30
0.0
 10
68.91706812513185
 20
98.27031518810604
 30
0.0
 10
68.91706812513185
 20
97.57854001466787
 30
0.0
 10
68.91706812513185
 20
96.88607582213265
 30
0.0
 10
69.477585160582
 20
96.32797035352218
 30
0.0
 10
70.16694876718049
 20
96.32797035352218
 30
0.0
  0
SPLINE
  5
44
330
1F
100
AcDbEntity
  8
BASE
 62
   250
100
AcDbSpline
210
0.0
220
0.0
230
1.0
 70
    11
 71
     3
 72
    68
 73
    64
 74
     0
 42
0.0000000001
 43
0.0000000001
 40
0.0
 40
0.0
 40
0.0
 40
0.0
 40
1.0
 40
1.0
 40
1.0
 40
2.0
 40
2.0
 40
2.0
 40
3.0
 40
3.0
 40
3.0
 40
4.0
 40
4.0
 40
4.0
 40
5.0
 40
5.0
 40
5.0
 40
6.0
 40
6.0
 40
6.0
 40
7.0
 40
7.0
 40
7.0
 40
8.0
 40
8.0
 40
8.0
 40
9.0
 40
9.0
 40
9.0
 40
10.0
 40
10.0
 40
10.0
 40
11.0
 40
11.0
 40
11.0
 40
12.0
 40
12.0
 40
12.0
 40
13.0
 40
13.0
 40
13.0
 40
14.0
 40
14.0
 40
14.0
 40
15.0
 40
15.0
 40
15.0
 40
16.0
 40
16.0
 40
16.0
 40
17.0
 40
17.0
 40
17.0
 40
18.0
 40
18.0
 40
18.0
 40
19.0
 40
19.0
 40
19.0
 40
20.0
 40
20.0
 40
20.0
 40
21.0
 40
21.0
 40
21.0
 40
21.0
 10
86.98039277339379
 20
106.1296115186065
 30
0.0
 10
86.98039277339379
 20
108.3437743869766
 30
0.0
 10
88.77390948301486
 20
110.1297118865301
 30
0.0
 10
90.98083765086591
 20
110.1297118865301
 30
0.0
 10
90.98083765086591
 20
110.1297118865301
 30
0.0
 10
95.96037866524603
 20
110.1297118865301
 30
0.0
 10
95.96037866524603
 20
110.1297118865301
 30
0.0
 10
95.96037866524603
 20
110.1297118865301
 30
0.0
 10
95.96055092002028
 20
194.119761778727
 30
0.0
 10
95.96055092002028
 20
194.119761778727
 30
0.0
 10
95.96055092002028
 20
194.119761778727
 30
0.0
 10
90.98100990564016
 20
194.119761778727
 30
0.0
 10
90.98100990564016
 20
194.119761778727
 30
0.0
 10
88.77477075688617
 20
194.119761778727
 30
0.0
 10
86.98125404726511
 20
195.9056992782805
 30
0.0
 10
86.98125404726511
 20
198.1198621466506
 30
0.0
 10
86.98125404726511
 20
198.1198621466506
 30
0.0
 10
86.98125404726511
 20
203.0990586514822
 30
0.0
 10
86.98125404726511
 20
203.0990586514822
 30
0.0
 10
86.98125404726511
 20
203.0990586514822
 30
0.0
 10
52.94336614344819
 20
203.0990586514822
 30
0.0
 10
52.94336614344819
 20
203.0990586514822
 30
0.0
 10
52.94336614344819
 20
203.0990586514822
 30
0.0
 10
52.94336614344819
 20
198.1198621466506
 30
0.0
 10
52.94336614344819
 20
198.1198621466506
 30
0.0
 10
52.94336614344819
 20
195.9056992782805
 30
0.0
 10
51.15139972679549
 20
194.119761778727
 30
0.0
 10
48.94412704939592
 20
194.119761778727
 30
0.0
 10
48.94412704939592
 20
194.119761778727
 30
0.0
 10
43.92221136054723
 20
194.119761778727
 30
0.0
 10
43.92221136054723
 20
194.119761778727
 30
0.0
 10
43.92221136054723
 20
194.119761778727
 30
0.0
 10
43.92221136054723
 20
170.1160589852488
 30
0.0
 10
43.92221136054723
 20
170.1160589852488
 30
0.0
 10
43.92221136054723
 20
170.1160589852488
 30
0.0
 10
48.94412704939592
 20
170.1160589852488
 30
0.0
 10
48.94412704939592
 20
170.1160589852488
 30
0.0
 10
51.15139972679549
 20
170.1160589852488
 30
0.0
 10
52.94319388867392
 20
168.3304659952438
 30
0.0
 10
52.94319388867392
 20
166.1159586173252
 30
0.0
 10
52.94319388867392
 20
163.9017957489551
 30
0.0
 10
51.15139972679549
 20
162.1158582494016
 30
0.0
 10
48.94412704939592
 20
162.1158582494016
 30
0.0
 10
48.94412704939592
 20
162.1158582494016
 30
0.0
 10
43.92221136054723
 20
162.1158582494016
 30
0.0
 10
43.92221136054723
 20
162.1158582494016
 30
0.0
 10
43.92221136054723
 20
162.1158582494016
 30
0.0
 10
43.92221136054723
 20
110.1297118865301
 30
0.0
 10
43.92221136054723
 20
110.1297118865301
 30
0.0
 10
43.92221136054723
 20
110.1297118865301
 30
0.0
 10
48.94412704939592
 20
110.1297118865301
 30
0.0
 10
48.94412704939592
 20
110.1297118865301
 30
0.0
 10
51.15139972679549
 20
110.1297118865301
 30
0.0
 10
52.94388290777098
 20
108.3437743869766
 30
0.0
 10
52.94388290777098
 20
106.1296115186065
 30
0.0
 10
52.94388290777098
 20
106.1296115186065
 30
0.0
 10
52.94388290777098
 20
101.0656656648378
 30
0.0
 10
52.94388290777098
 20
101.0656656648378
 30
0.0
 10
52.94388290777098
 20
101.0656656648378
 30
0.0
 10
86.98039277339379
 20
101.0656656648378
 30
0.0
 10
86.98039277339379
 20
101.0656656648378
 30
0.0
 10
86.98039277339379
 20
101.0656656648378
 30
0.0
 10
86.98039277339379
 20
106.1296115186065
 30
0.0
 10
86.98039277339379
 20
106.1296115186065
 30
0.0
  0
SPLINE
  5
46
330
1F
100
AcDbEntity
  8
TOP
 62
   250
100
AcDbSpline
210
0.0
220
0.0
230
1.0
 70
    11
 71
     3
 72
    47
 73
    43
 74
     0
 42
0.0000000001
 43
0.0000000001
 40
0.0
 40
0.0
 40
0.0
 40
0.0
 40
1.0
 40
1.0
 40
1.0
 40
2.0
 40
2.0
 40
2.0
 40
3.0
 40
3.0
 40
3.0
 40
4.0
 40
4.0
 40
4.0
 40
5.0
 40
5.0
 40
5.0
 40
6.0
 40
6.0
 40
6.0
 40
7.0
 40
7.0
 40
7.0
 40
8.0
 40
8.0
 40
8.0
 40
9.0
 40
9.0
 40
9.0
 40
10.0
 40
10.0
 40
10.0
 40
11.0
 40
11.0
 40
11.0
 40
12.0
 40
12.0
 40
12.0
 40
13.0
 40
13.0
 40
13.0
 40
14.0
 40
14.0
 40
14.0
 40
14.0
 10
161.1657009145697
 20
104.7340033375318
 30
0.0
 10
160.9941351594042
 20
102.8281765150916
 30
0.0
 10
159.4610676684681
 20
101.2954535337039
 30
0.0
 10
157.5559298651249
 20
101.1238877785385
 30
0.0
 10
157.4505099432763
 20
101.0863362377493
 30
0.0
 10
157.336821792263
 20
101.0656656648378
 30
0.0
 10
157.2183105075704
 20
101.0656656648378
 30
0.0
 10
157.2183105075704
 20
101.0656656648378
 30
0.0
 10
113.1920572633687
 20
101.0656656648378
 30
0.0
 10
113.1920572633687
 20
101.0656656648378
 30
0.0
 10
113.0783691123554
 20
101.0656656648378
 30
0.0
 10
112.9688150759245
 20
101.0846136900066
 30
0.0
 10
112.8675292686581
 20
101.1197536639562
 30
0.0
 10
110.824587645905
 20
101.2751274703409
 30
0.0
 10
109.1998806150611
 20
102.985272869219
 30
0.0
 10
109.1861002331201
 20
105.0712781855377
 30
0.0
 10
109.1861002331201
 20
105.0712781855377
 30
0.0
 10
109.1861002331201
 20
199.1148057227907
 30
0.0
 10
109.1861002331201
 20
199.1148057227907
 30
0.0
 10
109.1861002331201
 20
201.3117431137346
 30
0.0
 10
110.9734157708678
 20
203.0990586514822
 30
0.0
 10
113.1706976713601
 20
203.0990586514822
 30
0.0
 10
113.1706976713601
 20
203.0990586514822
 30
0.0
 10
113.2127278362802
 20
203.0990586514822
 30
0.0
 10
113.2127278362802
 20
203.0990586514822
 30
0.0
 10
113.2127278362802
 20
203.0990586514822
 30
0.0
 10
113.2127278362802
 20
203.0990586514822
 30
0.0
 10
113.2127278362802
 20
203.0990586514822
 30
0.0
 10
113.2127278362802
 20
203.0990586514822
 30
0.0
 10
157.2252006985409
 20
203.0990586514822
 30
0.0
 10
157.2252006985409
 20
203.0990586514822
 30
0.0
 10
159.3046603334377
 20
203.0859672886382
 30
0.0
 10
161.0148057323158
 20
201.4609157482459
 30
0.0
 10
161.170524048249
 20
199.4183186350413
 30
0.0
 10
161.2056640221986
 20
199.3163438086779
 30
0.0
 10
161.2242675378189
 20
199.2071342817954
 30
0.0
 10
161.2242675378189
 20
199.0934461307822
 30
0.0
 10
161.2242675378189
 20
199.0934461307822
 30
0.0
 10
161.2242675378189
 20
105.0712781855377
 30
0.0
 10
161.2242675378189
 20
105.0712781855377
 30
0.0
 10
161.2242675378189
 20
104.9527669008451
 30
0.0
 10
161.2035969649074
 20
104.8394232593804
 30
0.0
 10
161.1657009145697
 20
104.7340033375318
 30
0.0
  0
SPLINE
  5
47
330
1F
100
AcDbEntity
  8
TOP
 62
   250
100
AcDbSpline
210
0.0
220
0.0
230
1.0
 70
     8
 71
     3
 72
    50
 73
    46
 74
     0
 42
0.0000000001
 43
0.0000000001
 40
0.0
 40
0.0
 40
0.0
 40
0.0
 40
1.0
 40
1.0
 40
1.0
 40
2.0
 40
2.0
 40
2.0
 40
3.0
 40
3.0
 40
3.0
 40
4.0
 40
4.0
 40
4.0
 40
5.0
 40
5.0
 40
5.0
 40
6.0
 40
6.0
 40
6.0
 40
7.0
 40
7.0
 40
7.0
 40
8.0
 40
8.0
 40
8.0
 40
9.0
 40
9.0
 40
9.0
 40
10.0
 40
10.0
 40
10.0
 40
11.0
 40
11.0
 40
11.0
 40
12.0
 40
12.0
 40
12.0
 40
13.0
 40
13.0
 40
13.0
 40
14.0
 40
14.0
 40
14.0
 40
15.0
 40
15.0
 40
15.0
 40
15.0
 10
157.2183105075704
 20
102.1081515586744
 30
0.0
 10
158.8512857675788
 20
102.1184868451301
 30
0.0
 10
160.1714463575266
 20
103.4389919446264
 30
0.0
 10
160.1817816439823
 20
105.0712781855377
 30
0.0
 10
160.1817816439823
 20
105.0712781855377
 30
0.0
 10
160.2245008279994
 20
105.0712781855377
 30
0.0
 10
160.2245008279994
 20
105.0712781855377
 30
0.0
 10
160.2245008279994
 20
105.0712781855377
 30
0.0
 10
160.2245008279994
 20
199.0934461307822
 30
0.0
 10
160.2245008279994
 20
199.0934461307822
 30
0.0
 10
160.2245008279994
 20
199.0934461307822
 30
0.0
 10
160.1817816439823
 20
199.0934461307822
 30
0.0
 10
160.1817816439823
 20
199.0934461307822
 30
0.0
 10
160.1817816439823
 20
199.0593396854782
 30
0.0
 10
160.1817816439823
 20
199.0672634050943
 30
0.0
 10
160.1817816439823
 20
199.1148057227907
 30
0.0
 10
160.1817816439823
 20
200.7550156833182
 30
0.0
 10
158.8588649776464
 20
202.0886121456584
 30
0.0
 10
157.2183105075704
 20
202.0992919416627
 30
0.0
 10
157.2183105075704
 20
202.0992919416627
 30
0.0
 10
113.1920572633687
 20
202.0992919416627
 30
0.0
 10
113.1920572633687
 20
202.0992919416627
 30
0.0
 10
113.2265082182212
 20
202.0992919416627
 30
0.0
 10
113.2182399890566
 20
202.0992919416627
 30
0.0
 10
113.1706976713601
 20
202.0992919416627
 30
0.0
 10
111.5253200676048
 20
202.0992919416627
 30
0.0
 10
110.1865559620367
 20
200.7632839124828
 30
0.0
 10
110.1865559620367
 20
199.1148057227907
 30
0.0
 10
110.1865559620367
 20
199.0672634050943
 30
0.0
 10
110.1865559620367
 20
199.0593396854782
 30
0.0
 10
110.1865559620367
 20
199.0934461307822
 30
0.0
 10
110.1865559620367
 20
199.0934461307822
 30
0.0
 10
110.1865559620367
 20
105.0712781855377
 30
0.0
 10
110.1865559620367
 20
105.0712781855377
 30
0.0
 10
110.1968912484924
 20
103.4310682250103
 30
0.0
 10
111.5301432012841
 20
102.1081515586744
 30
0.0
 10
113.1706976713601
 20
102.1081515586744
 30
0.0
 10
113.2182399890566
 20
102.1081515586744
 30
0.0
 10
113.2265082182212
 20
102.1081515586744
 30
0.0
 10
113.1920572633687
 20
102.1081515586744
 30
0.0
 10
113.1920572633687
 20
102.1081515586744
 30
0.0
 10
113.1920572633687
 20
102.0657768842058
 30
0.0
 10
113.1920572633687
 20
102.0657768842058
 30
0.0
 10
113.1920572633687
 20
102.0657768842058
 30
0.0
 10
157.2183105075704
 20
102.0657768842058
 30
0.0
 10
157.2183105075704
 20
102.0657768842058
 30
0.0
  0
SPLINE
  5
48
330
1F
100
AcDbEntity
  8
TOP
 62
   250
100
AcDbSpline
210
0.0
220
0.0
230
1.0
 70
    11
 71
     3
 72
    41
 73
    37
 74
     0
 42
0.0000000001
 43
0.0000000001
 40
0.0
 40
0.0
 40
0.0
 40
0.0
 40
1.0
 40
1.0
 40
1.0
 40
2.0
 40
2.0
 40
2.0
 40
3.0
 40
3.0
 40
3.0
 40
4.0
 40
4.0
 40
4.0
 40
5.0
 40
5.0
 40
5.0
 40
6.0
 40
6.0
 40
6.0
 40
7.0
 40
7.0
 40
7.0
 40
8.0
 40
8.0
 40
8.0
 40
9.0
 40
9.0
 40
9.0
 40
10.0
 40
10.0
 40
10.0
 40
11.0
 40
11.0
 40
11.0
 40
12.0
 40
12.0
 40
12.0
 40
12.0
 10
164.2242566863745
 20
202.9740016853676
 30
0.0
 10
164.2242566863745
 20
203.2640787252257
 30
0.0
 10
164.1932508270073
 20
203.551055179147
 30
0.0
 10
164.1319281273698
 20
203.8318304611948
 30
0.0
 10
163.7143825545575
 20
207.2814045705755
 30
0.0
 10
160.7467773035633
 20
209.9572102339691
 30
0.0
 10
157.2444932332583
 20
209.9796033546232
 30
0.0
 10
157.2444932332583
 20
209.9796033546232
 30
0.0
 10
113.1706976713601
 20
209.9796033546232
 30
0.0
 10
113.1706976713601
 20
209.9796033546232
 30
0.0
 10
109.3197699379478
 20
209.9796033546232
 30
0.0
 10
106.1861110845646
 20
206.846633520337
 30
0.0
 10
106.1861110845646
 20
202.9953612773762
 30
0.0
 10
106.1861110845646
 20
202.9953612773762
 30
0.0
 10
106.1861110845646
 20
101.1907226309523
 30
0.0
 10
106.1861110845646
 20
101.1907226309523
 30
0.0
 10
106.2088487147672
 20
97.66604543999321
 30
0.0
 10
108.8849988877093
 20
94.69533960306228
 30
0.0
 10
112.3342284875415
 20
94.27779403025
 30
0.0
 10
112.6153482791378
 20
94.21612682106402
 30
0.0
 10
112.9019802235106
 20
94.18512096169678
 30
0.0
 10
113.1920572633687
 20
94.18512096169678
 30
0.0
 10
113.1920572633687
 20
94.18512096169678
 30
0.0
 10
157.2183105075704
 20
94.18512096169678
 30
0.0
 10
157.2183105075704
 20
94.18512096169678
 30
0.0
 10
157.5249240057577
 20
94.18512096169678
 30
0.0
 10
157.8287814275567
 20
94.2199164260978
 30
0.0
 10
158.1257486583852
 20
94.2888183358028
 30
0.0
 10
161.2456271298275
 20
94.70498587042098
 30
0.0
 10
163.7019802108106
 20
97.16064993230707
 30
0.0
 10
164.1195257836229
 20
100.2808729132978
 30
0.0
 10
164.1891167124249
 20
100.5781846536749
 30
0.0
 10
164.2242566863745
 20
100.882731094571
 30
0.0
 10
164.2242566863745
 20
101.1907226309523
 30
0.0
 10
164.2242566863745
 20
101.1907226309523
 30
0.0
 10
164.2242566863745
 20
202.9740016853676
 30
0.0
 10
164.2242566863745
 20
202.9740016853676
 30
0.0
  0
SPLINE
  5
49
330
1F
100
AcDbEntity
  8
TOP
 62
   250
100
AcDbSpline
210
0.0
220
0.0
230
1.0
 70
    11
 71
     3
 72
    17
 73
    13
 74
     0
 42
0.0000000001
 43
0.0000000001
 40
0.0
 40
0.0
 40
0.0
 40
0.0
 40
1.0
 40
1.0
 40
1.0
 40
2.0
 40
2.0
 40
2.0
 40
3.0
 40
3.0
 40
3.0
 40
4.0
 40
4.0
 40
4.0
 40
4.0
 10
134.9795301311857
 20
205.0865342369228
 30
0.0
 10
134.1520181956287
 20
205.0865342369228
 30
0.0
 10
133.4795355569079
 20
205.7559162897069
 30
0.0
 10
133.4795355569079
 20
206.5865288112006
 30
0.0
 10
133.4795355569079
 20
207.4171413326943
 30
0.0
 10
134.1520181956287
 20
208.0865233854784
 30
0.0
 10
134.9795301311857
 20
208.0865233854784
 30
0.0
 10
135.8070420667427
 20
208.0865233854784
 30
0.0
 10
136.4795247054635
 20
207.4171413326943
 30
0.0
 10
136.4795247054635
 20
206.5865288112006
 30
0.0
 10
136.4795247054635
 20
205.7559162897069
 30
0.0
 10
135.8070420667427
 20
205.0865342369228
 30
0.0
 10
134.9795301311857
 20
205.0865342369228
 30
0.0
  0
SPLINE
  5
4A
330
1F
100
AcDbEntity
  8
TOP
 62
   250
100
AcDbSpline
210
0.0
220
0.0
230
1.0
 70
    11
 71
     3
 72
    17
 73
    13
 74
     0
 42
0.0000000001
 43
0.0000000001
 40
0.0
 40
0.0
 40
0.0
 40
0.0
 40
1.0
 40
1.0
 40
1.0
 40
2.0
 40
2.0
 40
2.0
 40
3.0
 40
3.0
 40
3.0
 40
4.0
 40
4.0
 40
4.0
 40
4.0
 10
134.9795301311857
 20
96.07820093084156
 30
0.0
 10
134.1520181956287
 20
96.07820093084156
 30
0.0
 10
133.4795355569079
 20
96.74792749317413
 30
0.0
 10
133.4795355569079
 20
97.57854001466787
 30
0.0
 10
133.4795355569079
 20
98.40846351706456
 30
0.0
 10
134.1520181956287
 20
99.07819007939712
 30
0.0
 10
134.9795301311857
 20
99.07819007939712
 30
0.0
 10
135.8070420667427
 20
99.07819007939712
 30
0.0
 10
136.4795247054635
 20
98.40846351706456
 30
0.0
 10
136.4795247054635
 20
97.57854001466787
 30
0.0
 10
136.4795247054635
 20
96.74792749317413
 30
0.0
 10
135.8070420667427
 20
96.07820093084156
 30
0.0
 10
134.9795301311857
 20
96.07820093084156
 30
0.0
  0
SPLINE
  5
4B
330
1F
100
AcDbEntity
  8
TOP
 62
   250
100
AcDbSpline
210
0.0
220
0.0
230
1.0
 70
    11
 71
     3
 72
    17
 73
    13
 74
     0
 42
0.0000000001
 43
0.0000000001
 40
0.0
 40
0.0
 40
0.0
 40
0.0
 40
1.0
 40
1.0
 40
1.0
 40
2.0
 40
2.0
 40
2.0
 40
3.0
 40
3.0
 40
3.0
 40
4.0
 40
4.0
 40
4.0
 40
4.0
 10
155.2497829472987
 20
125.0500759235986
 30
0.0
 10
153.8703667150046
 20
125.0500759235986
 30
0.0
 10
152.7500216632014
 20
126.1662868608195
 30
0.0
 10
152.7500216632014
 20
127.5505262267929
 30
0.0
 10
152.7500216632014
 20
128.9340765736693
 30
0.0
 10
153.8703667150046
 20
130.0502875108902
 30
0.0
 10
155.2497829472987
 20
130.0502875108902
 30
0.0
 10
156.6285101604957
 20
130.0502875108902
 30
0.0
 10
157.749544231396
 20
128.9340765736693
 30
0.0
 10
157.749544231396
 20
127.5505262267929
 30
0.0
 10
157.749544231396
 20
126.1662868608195
 30
0.0
 10
156.6285101604957
 20
125.0500759235986
 30
0.0
 10
155.2497829472987
 20
125.0500759235986
 30
0.0
  0
SPLINE
  5
4C
330
1F
100
AcDbEntity
  8
TOP
 62
   250
100
AcDbSpline
210
0.0
220
0.0
230
1.0
 70
    11
 71
     3
 72
    17
 73
    13
 74
     0
 42
0.0000000001
 43
0.0000000001
 40
0.0
 40
0.0
 40
0.0
 40
0.0
 40
1.0
 40
1.0
 40
1.0
 40
2.0
 40
2.0
 40
2.0
 40
3.0
 40
3.0
 40
3.0
 40
4.0
 40
4.0
 40
4.0
 40
4.0
 10
155.4006781295526
 20
110.2757839351047
 30
0.0
 10
154.0212618972586
 20
110.2757839351047
 30
0.0
 10
152.9009168454553
 20
111.3919948723256
 30
0.0
 10
152.9009168454553
 20
112.776234238299
 30
0.0
 10
152.9009168454553
 20
114.1597845851753
 30
0.0
 10
154.0212618972586
 20
115.2759955223963
 30
0.0
 10
155.4006781295526
 20
115.2759955223963
 30
0.0
 10
156.7794053427496
 20
115.2759955223963
 30
0.0
 10
157.9004394136499
 20
114.1597845851753
 30
0.0
 10
157.9004394136499
 20
112.776234238299
 30
0.0
 10
157.9004394136499
 20
111.3919948723256
 30
0.0
 10
156.7794053427496
 20
110.2757839351047
 30
0.0
 10
155.4006781295526
 20
110.2757839351047
 30
0.0
  0
SPLINE
  5
4D
330
1F
100
AcDbEntity
  8
TOP
 62
   250
100
AcDbSpline
210
0.0
220
0.0
230
1.0
 70
    11
 71
     3
 72
    17
 73
    13
 74
     0
 42
0.0000000001
 43
0.0000000001
 40
0.0
 40
0.0
 40
0.0
 40
0.0
 40
1.0
 40
1.0
 40
1.0
 40
2.0
 40
2.0
 40
2.0
 40
3.0
 40
3.0
 40
3.0
 40
4.0
 40
4.0
 40
4.0
 40
4.0
 10
117.043674015878
 20
125.3890733193472
 30
0.0
 10
115.664946802681
 20
125.3890733193472
 30
0.0
 10
114.5446017508777
 20
126.5052842565681
 30
0.0
 10
114.5446017508777
 20
127.8895236225415
 30
0.0
 10
114.5446017508777
 20
129.2730739694179
 30
0.0
 10
115.664946802681
 20
130.3892849066388
 30
0.0
 10
117.043674015878
 20
130.3892849066388
 30
0.0
 10
118.423090248172
 20
130.3892849066388
 30
0.0
 10
119.5441243190723
 20
129.2730739694179
 30
0.0
 10
119.5441243190723
 20
127.8895236225415
 30
0.0
 10
119.5441243190723
 20
126.5052842565681
 30
0.0
 10
118.423090248172
 20
125.3890733193472
 30
0.0
 10
117.043674015878
 20
125.3890733193472
 30
0.0
  0
SPLINE
  5
4E
330
1F
100
AcDbEntity
  8
TOP
 62
   250
100
AcDbSpline
210
0.0
220
0.0
230
1.0
 70
    11
 71
     3
 72
    17
 73
    13
 74
     0
 42
0.0000000001
 43
0.0000000001
 40
0.0
 40
0.0
 40
0.0
 40
0.0
 40
1.0
 40
1.0
 40
1.0
 40
2.0
 40
2.0
 40
2.0
 40
3.0
 40
3.0
 40
3.0
 40
4.0
 40
4.0
 40
4.0
 40
4.0
 10
119.456618893747
 20
135.9724066500347
 30
0.0
 10
118.07789168055
 20
135.9724066500347
 30
0.0
 10
116.9575466287467
 20
137.0886175872556
 30
0.0
 10
116.9575466287467
 20
138.472856953229
 30
0.0
 10
116.9575466287467
 20
139.8564073001054
 30
0.0
 10
118.07789168055
 20
140.9726182373263
 30
0.0
 10
119.456618893747
 20
140.9726182373263
 30
0.0
 10
120.836035126041
 20
140.9726182373263
 30
0.0
 10
121.9570691969413
 20
139.8564073001054
 30
0.0
 10
121.9570691969413
 20
138.472856953229
 30
0.0
 10
121.9570691969413
 20
137.0886175872556
 30
0.0
 10
120.836035126041
 20
135.9724066500347
 30
0.0
 10
119.456618893747
 20
135.9724066500347
 30
0.0
  0
SPLINE
  5
4F
330
1F
100
AcDbEntity
  8
TOP
 62
   250
100
AcDbSpline
210
0.0
220
0.0
230
1.0
 70
    11
 71
     3
 72
    41
 73
    37
 74
     0
 42
0.0000000001
 43
0.0000000001
 40
0.0
 40
0.0
 40
0.0
 40
0.0
 40
1.0
 40
1.0
 40
1.0
 40
2.0
 40
2.0
 40
2.0
 40
3.0
 40
3.0
 40
3.0
 40
4.0
 40
4.0
 40
4.0
 40
5.0
 40
5.0
 40
5.0
 40
6.0
 40
6.0
 40
6.0
 40
7.0
 40
7.0
 40
7.0
 40
8.0
 40
8.0
 40
8.0
 40
9.0
 40
9.0
 40
9.0
 40
10.0
 40
10.0
 40
10.0
 40
11.0
 40
11.0
 40
11.0
 40
12.0
 40
12.0
 40
12.0
 40
12.0
 10
110.1865559620367
 20
199.0734645769678
 30
0.0
 10
110.1865559620367
 20
199.0751871247104
 30
0.0
 10
110.1865559620367
 20
199.0869004493602
 30
0.0
 10
110.1865559620367
 20
199.0934461307822
 30
0.0
 10
110.1865559620367
 20
199.1003363217527
 30
0.0
 10
110.1865559620367
 20
199.1024033790439
 30
0.0
 10
110.1865559620367
 20
199.1148057227907
 30
0.0
 10
110.1865559620367
 20
200.7632839124828
 30
0.0
 10
111.5253200676048
 20
202.0992919416627
 30
0.0
 10
113.1706976713601
 20
202.0992919416627
 30
0.0
 10
113.183100015107
 20
202.0992919416627
 30
0.0
 10
113.1851670723982
 20
202.0992919416627
 30
0.0
 10
113.1920572633687
 20
202.0992919416627
 30
0.0
 10
113.1920572633687
 20
202.0992919416627
 30
0.0
 10
113.2120388171831
 20
202.0992919416627
 30
0.0
 10
113.2120388171831
 20
202.0992919416627
 30
0.0
 10
113.2120388171831
 20
202.0992919416627
 30
0.0
 10
157.2183105075704
 20
202.0992919416627
 30
0.0
 10
157.2183105075704
 20
202.0992919416627
 30
0.0
 10
158.8588649776464
 20
202.0886121456584
 30
0.0
 10
160.1817816439823
 20
200.7550156833182
 30
0.0
 10
160.1817816439823
 20
199.1148057227907
 30
0.0
 10
160.1817816439823
 20
199.1024033790439
 30
0.0
 10
160.1817816439823
 20
199.1003363217527
 30
0.0
 10
160.1817816439823
 20
199.0934461307822
 30
0.0
 10
160.1817816439823
 20
199.0934461307822
 30
0.0
 10
160.2245008279994
 20
199.0934461307822
 30
0.0
 10
160.2245008279994
 20
199.0934461307822
 30
0.0
 10
160.2245008279994
 20
199.0934461307822
 30
0.0
 10
160.2245008279994
 20
142.8749999642812
 30
0.0
 10
160.2245008279994
 20
142.8749999642812
 30
0.0
 10
160.2245008279994
 20
142.8749999642812
 30
0.0
 10
110.1865559620367
 20
142.8749999642812
 30
0.0
 10
110.1865559620367
 20
142.8749999642812
 30
0.0
 10
110.1865559620367
 20
142.8749999642812
 30
0.0
 10
110.1865559620367
 20
199.0734645769678
 30
0.0
 10
110.1865559620367
 20
199.0734645769678
 30
0.0
  0
SPLINE
  5
50
330
1F
100
AcDbEntity
  8
TOP
 62
   250
100
AcDbSpline
210
0.0
220
0.0
230
1.0
 70
    11
 71
     3
 72
    17
 73
    13
 74
     0
 42
0.0000000001
 43
0.0000000001
 40
0.0
 40
0.0
 40
0.0
 40
0.0
 40
1.0
 40
1.0
 40
1.0
 40
2.0
 40
2.0
 40
2.0
 40
3.0
 40
3.0
 40
3.0
 40
4.0
 40
4.0
 40
4.0
 40
4.0
 10
52.37079127379967
 20
204.9973062638549
 30
0.0
 10
50.71645642178269
 20
204.9973062638549
 30
0.0
 10
49.37149114434116
 20
206.33675938852
 30
0.0
 10
49.37149114434116
 20
207.9979844315075
 30
0.0
 10
49.37149114434116
 20
209.6585204553979
 30
0.0
 10
50.71645642178269
 20
210.9981458348373
 30
0.0
 10
52.37079127379967
 20
210.9981458348373
 30
0.0
 10
54.02615965446221
 20
210.9981458348373
 30
0.0
 10
55.37164169622654
 20
209.6585204553979
 30
0.0
 10
55.37164169622654
 20
207.9979844315075
 30
0.0
 10
55.37164169622654
 20
206.33675938852
 30
0.0
 10
54.02615965446221
 20
204.9973062638549
 30
0.0
 10
52.37079127379967
 20
204.9973062638549
 30
0.0
  0
SPLINE
  5
51
330
1F
100
AcDbEntity
  8
TOP
 62
   250
100
AcDbSpline
210
0.0
220
0.0
230
1.0
 70
    11
 71
     3
 72
    17
 73
    13
 74
     0
 42
0.0000000001
 43
0.0000000001
 40
0.0
 40
0.0
 40
0.0
 40
0.0
 40
1.0
 40
1.0
 40
1.0
 40
2.0
 40
2.0
 40
2.0
 40
3.0
 40
3.0
 40
3.0
 40
4.0
 40
4.0
 40
4.0
 40
4.0
 10
52.37130803812245
 20
206.4974730929069
 30
0.0
 10
51.54396835733971
 20
206.4974730929069
 30
0.0
 10
50.87148571861893
 20
207.1671996552395
 30
0.0
 10
50.87148571861893
 20
207.9979844315075
 30
0.0
 10
50.87148571861893
 20
208.8280801886784
 30
0.0
 10
51.54396835733971
 20
209.4979790057852
 30
0.0
 10
52.37130803812245
 20
209.4979790057852
 30
0.0
 10
53.19881997367946
 20
209.4979790057852
 30
0.0
 10
53.87164712194875
 20
208.8280801886784
 30
0.0
 10
53.87164712194875
 20
207.9979844315075
 30
0.0
 10
53.87164712194875
 20
207.1671996552395
 30
0.0
 10
53.19881997367946
 20
206.4974730929069
 30
0.0
 10
52.37130803812245
 20
206.4974730929069
 30
0.0
  0
SPLINE
  5
52
330
1F
100
AcDbEntity
  8
TOP
 62
   250
100
AcDbSpline
210
0.0
220
0.0
230
1.0
 70
    11
 71
     3
 72
    17
 73
    13
 74
     0
 42
0.0000000001
 43
0.0000000001
 40
0.0
 40
0.0
 40
0.0
 40
0.0
 40
1.0
 40
1.0
 40
1.0
 40
2.0
 40
2.0
 40
2.0
 40
3.0
 40
3.0
 40
3.0
 40
4.0
 40
4.0
 40
4.0
 40
4.0
 10
87.29596351984269
 20
204.9973062638549
 30
0.0
 10
85.64162866782571
 20
204.9973062638549
 30
0.0
 10
84.29666339038417
 20
206.33675938852
 30
0.0
 10
84.29666339038417
 20
207.9979844315075
 30
0.0
 10
84.29666339038417
 20
209.6585204553979
 30
0.0
 10
85.64162866782571
 20
210.9981458348373
 30
0.0
 10
87.29596351984269
 20
210.9981458348373
 30
0.0
 10
88.9509873909567
 20
210.9981458348373
 30
0.0
 10
90.29664168749528
 20
209.6585204553979
 30
0.0
 10
90.29664168749528
 20
207.9979844315075
 30
0.0
 10
90.29664168749528
 20
206.33675938852
 30
0.0
 10
88.9509873909567
 20
204.9973062638549
 30
0.0
 10
87.29596351984269
 20
204.9973062638549
 30
0.0
  0
SPLINE
  5
53
330
1F
100
AcDbEntity
  8
TOP
 62
   250
100
AcDbSpline
210
0.0
220
0.0
230
1.0
 70
    11
 71
     3
 72
    17
 73
    13
 74
     0
 42
0.0000000001
 43
0.0000000001
 40
0.0
 40
0.0
 40
0.0
 40
0.0
 40
1.0
 40
1.0
 40
1.0
 40
2.0
 40
2.0
 40
2.0
 40
3.0
 40
3.0
 40
3.0
 40
4.0
 40
4.0
 40
4.0
 40
4.0
 10
87.2963080293912
 20
206.4974730929069
 30
0.0
 10
86.46914060338271
 20
206.4974730929069
 30
0.0
 10
85.79665796466195
 20
207.1671996552395
 30
0.0
 10
85.79665796466195
 20
207.9979844315075
 30
0.0
 10
85.79665796466195
 20
208.8280801886784
 30
0.0
 10
86.46914060338271
 20
209.4979790057852
 30
0.0
 10
87.2963080293912
 20
209.4979790057852
 30
0.0
 10
88.12381996494821
 20
209.4979790057852
 30
0.0
 10
88.7966471132175
 20
208.8280801886784
 30
0.0
 10
88.7966471132175
 20
207.9979844315075
 30
0.0
 10
88.7966471132175
 20
207.1671996552395
 30
0.0
 10
88.12381996494821
 20
206.4974730929069
 30
0.0
 10
87.2963080293912
 20
206.4974730929069
 30
0.0
  0
SPLINE
  5
54
330
1F
100
AcDbEntity
  8
TOP
 62
   250
100
AcDbSpline
210
0.0
220
0.0
230
1.0
 70
    11
 71
     3
 72
    17
 73
    13
 74
     0
 42
0.0000000001
 43
0.0000000001
 40
0.0
 40
0.0
 40
0.0
 40
0.0
 40
1.0
 40
1.0
 40
1.0
 40
2.0
 40
2.0
 40
2.0
 40
3.0
 40
3.0
 40
3.0
 40
4.0
 40
4.0
 40
4.0
 40
4.0
 10
52.37079127379967
 20
93.51952851394651
 30
0.0
 10
50.71645642178269
 20
93.51952851394651
 30
0.0
 10
49.37149114434116
 20
94.85898163861165
 30
0.0
 10
49.37149114434116
 20
96.52020668159912
 30
0.0
 10
49.37149114434116
 20
98.18074270548954
 30
0.0
 10
50.71645642178269
 20
99.5205403397032
 30
0.0
 10
52.37079127379967
 20
99.5205403397032
 30
0.0
 10
54.02615965446221
 20
99.5205403397032
 30
0.0
 10
55.37164169622654
 20
98.18074270548954
 30
0.0
 10
55.37164169622654
 20
96.52020668159912
 30
0.0
 10
55.37164169622654
 20
94.85898163861165
 30
0.0
 10
54.02615965446221
 20
93.51952851394651
 30
0.0
 10
52.37079127379967
 20
93.51952851394651
 30
0.0
  0
SPLINE
  5
55
330
1F
100
AcDbEntity
  8
TOP
 62
   250
100
AcDbSpline
210
0.0
220
0.0
230
1.0
 70
    11
 71
     3
 72
    17
 73
    13
 74
     0
 42
0.0000000001
 43
0.0000000001
 40
0.0
 40
0.0
 40
0.0
 40
0.0
 40
1.0
 40
1.0
 40
1.0
 40
2.0
 40
2.0
 40
2.0
 40
3.0
 40
3.0
 40
3.0
 40
4.0
 40
4.0
 40
4.0
 40
4.0
 10
52.37130803812245
 20
95.01986759777282
 30
0.0
 10
51.54396835733971
 20
95.01986759777282
 30
0.0
 10
50.87148571861893
 20
95.68959416010539
 30
0.0
 10
50.87148571861893
 20
96.52020668159912
 30
0.0
 10
50.87148571861893
 20
97.3501301839958
 30
0.0
 10
51.54396835733971
 20
98.0202012558769
 30
0.0
 10
52.37130803812245
 20
98.0202012558769
 30
0.0
 10
53.19881997367946
 20
98.0202012558769
 30
0.0
 10
53.87164712194875
 20
97.3501301839958
 30
0.0
 10
53.87164712194875
 20
96.52020668159912
 30
0.0
 10
53.87164712194875
 20
95.68959416010539
 30
0.0
 10
53.19881997367946
 20
95.01986759777282
 30
0.0
 10
52.37130803812245
 20
95.01986759777282
 30
0.0
  0
SPLINE
  5
56
330
1F
100
AcDbEntity
  8
TOP
 62
   250
100
AcDbSpline
210
0.0
220
0.0
230
1.0
 70
    11
 71
     3
 72
    17
 73
    13
 74
     0
 42
0.0000000001
 43
0.0000000001
 40
0.0
 40
0.0
 40
0.0
 40
0.0
 40
1.0
 40
1.0
 40
1.0
 40
2.0
 40
2.0
 40
2.0
 40
3.0
 40
3.0
 40
3.0
 40
4.0
 40
4.0
 40
4.0
 40
4.0
 10
87.29596351984269
 20
93.51952851394651
 30
0.0
 10
85.64162866782571
 20
93.51952851394651
 30
0.0
 10
84.29666339038417
 20
94.85898163861165
 30
0.0
 10
84.29666339038417
 20
96.52020668159912
 30
0.0
 10
84.29666339038417
 20
98.18074270548954
 30
0.0
 10
85.64162866782571
 20
99.5205403397032
 30
0.0
 10
87.29596351984269
 20
99.5205403397032
 30
0.0
 10
88.9509873909567
 20
99.5205403397032
 30
0.0
 10
90.29664168749528
 20
98.18074270548954
 30
0.0
 10
90.29664168749528
 20
96.52020668159912
 30
0.0
 10
90.29664168749528
 20
94.85898163861165
 30
0.0
 10
88.9509873909567
 20
93.51952851394651
 30
0.0
 10
87.29596351984269
 20
93.51952851394651
 30
0.0
  0
SPLINE
  5
57
330
1F
100
AcDbEntity
  8
TOP
 62
   250
100
AcDbSpline
210
0.0
220
0.0
230
1.0
 70
    11
 71
     3
 72
    77
 73
    73
 74
     0
 42
0.0000000001
 43
0.0000000001
 40
0.0
 40
0.0
 40
0.0
 40
0.0
 40
1.0
 40
1.0
 40
1.0
 40
2.0
 40
2.0
 40
2.0
 40
3.0
 40
3.0
 40
3.0
 40
4.0
 40
4.0
 40
4.0
 40
5.0
 40
5.0
 40
5.0
 40
6.0
 40
6.0
 40
6.0
 40
7.0
 40
7.0
 40
7.0
 40
8.0
 40
8.0
 40
8.0
 40
9.0
 40
9.0
 40
9.0
 40
10.0
 40
10.0
 40
10.0
 40
11.0
 40
11.0
 40
11.0
 40
12.0
 40
12.0
 40
12.0
 40
13.0
 40
13.0
 40
13.0
 40
14.0
 40
14.0
 40
14.0
 40
15.0
 40
15.0
 40
15.0
 40
16.0
 40
16.0
 40
16.0
 40
17.0
 40
17.0
 40
17.0
 40
18.0
 40
18.0
 40
18.0
 40
19.0
 40
19.0
 40
19.0
 40
20.0
 40
20.0
 40
20.0
 40
21.0
 40
21.0
 40
21.0
 40
22.0
 40
22.0
 40
22.0
 40
23.0
 40
23.0
 40
23.0
 40
24.0
 40
24.0
 40
24.0
 40
24.0
 10
91.97595348178032
 20
209.9796033546232
 30
0.0
 10
91.97595348178032
 20
209.9796033546232
 30
0.0
 10
91.33275415468418
 20
209.9796033546232
 30
0.0
 10
91.33275415468418
 20
209.9796033546232
 30
0.0
 10
90.59912107110023
 20
211.4716742092849
 30
0.0
 10
89.06794838268094
 20
212.4983126638893
 30
0.0
 10
87.29527450074563
 20
212.4983126638893
 30
0.0
 10
85.52415091177869
 20
212.4983126638893
 30
0.0
 10
83.99366724245645
 20
211.4716742092849
 30
0.0
 10
83.26037866842103
 20
209.9796033546232
 30
0.0
 10
83.26037866842103
 20
209.9796033546232
 30
0.0
 10
56.40775416341543
 20
209.9796033546232
 30
0.0
 10
56.40775416341543
 20
209.9796033546232
 30
0.0
 10
55.67412107983147
 20
211.4716742092849
 30
0.0
 10
54.14294839141218
 20
212.4983126638893
 30
0.0
 10
52.37027450947688
 20
212.4983126638893
 30
0.0
 10
50.59897866573567
 20
212.4983126638893
 30
0.0
 10
49.06849499641343
 20
211.4716742092849
 30
0.0
 10
48.33520642237801
 20
209.9796033546232
 30
0.0
 10
48.33520642237801
 20
209.9796033546232
 30
0.0
 10
47.90250242943063
 20
209.9796033546232
 30
0.0
 10
47.90250242943063
 20
209.9796033546232
 30
0.0
 10
44.39987384957712
 20
209.9572102339691
 30
0.0
 10
41.43226859858291
 20
207.2814045705755
 30
0.0
 10
41.01506753531915
 20
203.8318304611948
 30
0.0
 10
40.95340032613318
 20
203.551055179147
 30
0.0
 10
40.92239446676593
 20
203.2640787252257
 30
0.0
 10
40.92239446676593
 20
202.9740016853676
 30
0.0
 10
40.92239446676593
 20
202.9740016853676
 30
0.0
 10
40.92222221199167
 20
101.1907226309523
 30
0.0
 10
40.92222221199167
 20
101.1907226309523
 30
0.0
 10
40.92222221199167
 20
100.882731094571
 30
0.0
 10
40.95736218594121
 20
100.5781846536749
 30
0.0
 10
41.02695311474326
 20
100.2808729132978
 30
0.0
 10
41.44449868755554
 20
97.16064993230707
 30
0.0
 10
43.90085176853868
 20
94.70498587042098
 30
0.0
 10
47.02107474952945
 20
94.2888183358028
 30
0.0
 10
47.31769747080946
 20
94.2199164260978
 30
0.0
 10
47.6215548926085
 20
94.18512096169678
 30
0.0
 10
47.92816839079574
 20
94.18512096169678
 30
0.0
 10
47.92816839079574
 20
94.18512096169678
 30
0.0
 10
48.52882078864905
 20
94.18512096169678
 30
0.0
 10
48.52882078864905
 20
94.18512096169678
 30
0.0
 10
49.31878118341683
 20
92.88666447330611
 30
0.0
 10
50.74246689269633
 20
92.0191894301202
 30
0.0
 10
52.37027450947688
 20
92.0191894301202
 30
0.0
 10
53.99928790967726
 20
92.0191894301202
 30
0.0
 10
55.42366263805381
 20
92.88666447330611
 30
0.0
 10
56.21396754237012
 20
94.18512096169678
 30
0.0
 10
56.21396754237012
 20
94.18512096169678
 30
0.0
 10
83.45399303469206
 20
94.18512096169678
 30
0.0
 10
83.45399303469206
 20
94.18512096169678
 30
0.0
 10
84.24395342945985
 20
92.88666447330611
 30
0.0
 10
85.66763913873935
 20
92.0191894301202
 30
0.0
 10
87.29527450074563
 20
92.0191894301202
 30
0.0
 10
88.92428790094601
 20
92.0191894301202
 30
0.0
 10
90.34866262932256
 20
92.88666447330611
 30
0.0
 10
91.13896753363888
 20
94.18512096169678
 30
0.0
 10
91.13896753363888
 20
94.18512096169678
 30
0.0
 10
91.95442163499752
 20
94.18512096169678
 30
0.0
 10
91.95442163499752
 20
94.18512096169678
 30
0.0
 10
92.24449867485555
 20
94.18512096169678
 30
0.0
 10
92.53147512877686
 20
94.21612682106402
 30
0.0
 10
92.81225041082472
 20
94.27779403025
 30
0.0
 10
96.26182452020538
 20
94.69533960306228
 30
0.0
 10
98.93763018359893
 20
97.66604543999321
 30
0.0
 10
98.96036781380158
 20
101.1907226309523
 30
0.0
 10
98.96036781380158
 20
101.1907226309523
 30
0.0
 10
98.96054006857584
 20
202.9953612773762
 30
0.0
 10
98.96054006857584
 20
202.9953612773762
 30
0.0
 10
98.96054006857584
 20
206.846633520337
 30
0.0
 10
95.82722572474111
 20
209.9796033546232
 30
0.0
 10
91.97595348178032
 20
209.9796033546232
 30
0.0
  0
SPLINE
  5
58
330
1F
100
AcDbEntity
  8
TOP
 62
   250
100
AcDbSpline
210
0.0
220
0.0
230
1.0
 70
    11
 71
     3
 72
    17
 73
    13
 74
     0
 42
0.0000000001
 43
0.0000000001
 40
0.0
 40
0.0
 40
0.0
 40
0.0
 40
1.0
 40
1.0
 40
1.0
 40
2.0
 40
2.0
 40
2.0
 40
3.0
 40
3.0
 40
3.0
 40
4.0
 40
4.0
 40
4.0
 40
4.0
 10
87.2963080293912
 20
95.01986759777282
 30
0.0
 10
86.46914060338271
 20
95.01986759777282
 30
0.0
 10
85.79665796466195
 20
95.68959416010539
 30
0.0
 10
85.79665796466195
 20
96.52020668159912
 30
0.0
 10
85.79665796466195
 20
97.3501301839958
 30
0.0
 10
86.46914060338271
 20
98.0202012558769
 30
0.0
 10
87.2963080293912
 20
98.0202012558769
 30
0.0
 10
88.12381996494821
 20
98.0202012558769
 30
0.0
 10
88.7966471132175
 20
97.3501301839958
 30
0.0
 10
88.7966471132175
 20
96.52020668159912
 30
0.0
 10
88.7966471132175
 20
95.68959416010539
 30
0.0
 10
88.12381996494821
 20
95.01986759777282
 30
0.0
 10
87.2963080293912
 20
95.01986759777282
 30
0.0
  0
ENDSEC
  0
SECTION
  2
OBJECTS
  0
DICTIONARY
  5
C
330
0
100
AcDbDictionary
  3
ACAD_GROUP
350
D
  3
ACAD_LAYOUT
350
1A
  3
ACAD_MLINESTYLE
350
17
  3
ACAD_PLOTSETTINGS
350
19
  3
ACAD_TABLESTYLE
350
59
  3
ACAD_VISUALSTYLE
350
2A
1001
ACAD
1000
TREAT_AS_HARD
1070
     0
  0
DICTIONARY
  5
D
102
{ACAD_REACTORS
330
C
102
}
330
C
100
AcDbDictionary
1001
ACAD
1000
TREAT_AS_HARD
1070
     0
  0
DICTIONARY
  5
1A
102
{ACAD_REACTORS
330
C
102
}
330
C
100
AcDbDictionary
1001
ACAD
1000
TREAT_AS_HARD
1070
     0
  0
DICTIONARY
  5
17
102
{ACAD_REACTORS
330
C
102
}
330
C
100
AcDbDictionary
  3
STANDARD
350
18
1001
ACAD
1000
TREAT_AS_HARD
1070
     0
  0
DICTIONARY
  5
19
102
{ACAD_REACTORS
330
C
102
}
330
C
100
AcDbDictionary
1001
ACAD
1000
TREAT_AS_HARD
1070
     0
  0
DICTIONARY
  5
59
102
{ACAD_REACTORS
330
C
102
}
330
C
100
AcDbDictionary
1001
ACAD
1000
TREAT_AS_HARD
1070
     0
  0
DICTIONARY
  5
2A
102
{ACAD_REACTORS
330
C
102
}
330
C
100
AcDbDictionary
  3
2DWIREFRAME
350
2F
  3
3D_HIDDEN
350
31
  3
3DWIREFRAME
350
30
  3
BASIC
350
32
  3
BRIGHTEN
350
36
  3
COLORCHANGE
350
3A
  3
CONCEPTUAL
350
34
  3
DIM
350
35
  3
FACEPATTERN
350
39
  3
FLAT
350
2B
  3
FLATWITHEDGES
350
2C
  3
GOURAUD
350
2D
  3
GOURAUDWITHEDGES
350
2E
  3
LINEPATTERN
350
38
  3
REALISTIC
350
33
  3
THICKEN
350
37
1001
ACAD
1000
TREAT_AS_HARD
1070
     0
  0
MLINESTYLE
  5
18
102
{ACAD_REACTORS
330
17
102
}
330
17
100
AcDbMlineStyle
  2
Standard
 70
     0
  3

 62
   256
 51
90.0
 52
90.0
 71
     2
 49
0.5
 62
   256
  6
BYLAYER
 49
-0.5
 62
   256
  6
BYLAYER
  0
VISUALSTYLE
  5
2F
102
{ACAD_REACTORS
330
2A
102
}
330
2A
100
AcDbVisualStyle
  2
2dWireframe
 70
     4
 71
     0
 72
     2
 73
     0
 90
        0
 40
-0.6
 41
-30.0
 62
     5
 63
     7
 74
     1
 91
        4
 64
     7
 65
   257
 75
     1
175
     1
 42
1.0
 92
        0
 66
   257
 43
1.0
 76
     1
 77
     6
 78
     2
 67
     7
 79
     5
170
     0
171
     0
290
     0
174
     0
 93
        1
 44
0.0
173
     0
291
     0
 45
0.0
1001
ACAD
1000
AcDbSavedByObjectVersion
1070
     0
  0
VISUALSTYLE
  5
31
102
{ACAD_REACTORS
330
2A
102
}
330
2A
100
AcDbVisualStyle
  2
3D Hidden
 70
     6
 71
     1
 72
     2
 73
     2
 90
        0
 40
-0.6
 41
-30.0
 62
     5
 63
     7
 74
     2
 91
        2
 64
     7
 65
   257
 75
     2
175
     1
 42
40.0
 92
        0
 66
   257
 43
1.0
 76
     1
 77
     6
 78
     2
 67
     7
 79
     3
170
     0
171
     0
290
     0
174
     0
 93
        1
 44
0.0
173
     0
291
     0
 45
0.0
1001
ACAD
1000
AcDbSavedByObjectVersion
1070
     0
  0
VISUALSTYLE
  5
30
102
{ACAD_REACTORS
330
2A
102
}
330
2A
100
AcDbVisualStyle
  2
3dWireframe
 70
     5
 71
     0
 72
     2
 73
     0
 90
        0
 40
-0.6
 41
-30.0
 62
     5
 63
     7
 74
     1
 91
        4
 64
     7
 65
   257
 75
     1
175
     1
 42
1.0
 92
        0
 66
   257
 43
1.0
 76
     1
 77
     6
 78
     2
 67
     7
 79
     5
170
     0
171
     0
290
     0
174
     0
 93
        1
 44
0.0
173
     0
291
     0
 45
0.0
1001
ACAD
1000
AcDbSavedByObjectVersion
1070
     0
  0
VISUALSTYLE
  5
32
102
{ACAD_REACTORS
330
2A
102
}
330
2A
100
AcDbVisualStyle
  2
Basic
 70
     7
 71
     1
 72
     0
 73
     1
 90
        0
 40
-0.6
 41
-30.0
 62
     5
 63
     7
 74
     0
 91
        4
 64
     7
 65
   257
 75
     1
175
     1
 42
1.0
 92
        8
 66
     7
 43
1.0
 76
     1
 77
     6
 78
     2
 67
     7
 79
     5
170
     0
171
     0
290
     0
174
     0
 93
        1
 44
0.0
173
     0
291
     1
 45
0.0
1001
ACAD
1000
AcDbSavedByObjectVersion
1070
     0
  0
VISUALSTYLE
  5
36
102
{ACAD_REACTORS
330
2A
102
}
330
2A
100
AcDbVisualStyle
  2
Brighten
 70
    12
 71
     2
 72
     2
 73
     0
 90
        0
 40
-0.6
 41
-30.0
 62
     5
 63
     7
 74
     1
 91
        4
 64
     7
 65
   257
 75
     1
175
     1
 42
1.0
 92
        8
 66
     7
 43
1.0
 76
     1
 77
     6
 78
     2
 67
     7
 79
     5
170
     0
171
     0
290
     0
174
     0
 93
        1
 44
50.0
173
     0
291
     1
 45
0.0
1001
ACAD
1000
AcDbSavedByObjectVersion
1070
     0
  0
VISUALSTYLE
  5
3A
102
{ACAD_REACTORS
330
2A
102
}
330
2A
100
AcDbVisualStyle
  2
ColorChange
 70
    16
 71
     2
 72
     2
 73
     3
 90
        0
 40
-0.6
 41
-30.0
 62
     5
 63
     8
 74
     1
 91
        4
 64
     7
 65
   257
 75
     1
175
     1
 42
1.0
 92
        8
 66
     8
 43
1.0
 76
     1
 77
     6
 78
     2
 67
     7
 79
     5
170
     0
171
     0
290
     0
174
     0
 93
        1
 44
0.0
173
     0
291
     1
 45
0.0
1001
ACAD
1000
AcDbSavedByObjectVersion
1070
     0
  0
VISUALSTYLE
  5
34
102
{ACAD_REACTORS
330
2A
102
}
330
2A
100
AcDbVisualStyle
  2
Conceptual
 70
     9
 71
     3
 72
     2
 73
     0
 90
        0
 40
-0.6
 41
-30.0
 62
     5
 63
     7
 74
     2
 91
        2
 64
     7
 65
   257
 75
     1
175
     1
 42
40.0
 92
        8
 66
     7
 43
1.0
 76
     1
 77
     6
 78
     2
 67
     7
 79
     3
170
     0
171
     0
290
     0
174
     0
 93
        1
 44
0.0
173
     0
291
     0
 45
0.0
1001
ACAD
1000
AcDbSavedByObjectVersion
1070
     0
  0
VISUALSTYLE
  5
35
102
{ACAD_REACTORS
330
2A
102
}
330
2A
100
AcDbVisualStyle
  2
Dim
 70
    11
 71
     2
 72
     2
 73
     0
 90
        0
 40
-0.6
 41
-30.0
 62
     5
 63
     7
 74
     1
 91
        4
 64
     7
 65
   257
 75
     1
175
     1
 42
1.0
 92
        8
 66
     7
 43
1.0
 76
     1
 77
     6
 78
     2
 67
     7
 79
     5
170
     0
171
     0
290
     0
174
     0
 93
        1
 44
-50.0
173
     0
291
     1
 45
0.0
1001
ACAD
1000
AcDbSavedByObjectVersion
1070
     0
  0
VISUALSTYLE
  5
39
102
{ACAD_REACTORS
330
2A
102
}
330
2A
100
AcDbVisualStyle
  2
Facepattern
 70
    15
 71
     2
 72
     2
 73
     0
 90
        0
 40
-0.6
 41
-30.0
 62
     5
 63
     7
 74
     1
 91
        4
 64
     7
 65
   257
 75
     1
175
     1
 42
1.0
 92
        8
 66
     7
 43
1.0
 76
     1
 77
     6
 78
     2
 67
     7
 79
     5
170
     0
171
     0
290
     0
174
     0
 93
        1
 44
0.0
173
     0
291
     1
 45
0.0
1001
ACAD
1000
AcDbSavedByObjectVersion
1070
     0
  0
VISUALSTYLE
  5
2B
102
{ACAD_REACTORS
330
2A
102
}
330
2A
100
AcDbVisualStyle
  2
Flat
 70
     0
 71
     2
 72
     1
 73
     1
 90
        2
 40
-0.6
 41
30.0
 62
     5
 63
     7
 74
     0
 91
        4
 64
     7
 65
   257
 75
     1
175
     1
 42
1.0
 92
        8
 66
     7
 43
1.0
 76
     1
 77
     6
 78
     2
 67
     7
 79
     5
170
     0
171
     0
290
     0
174
     0
 93
       13
 44
0.0
173
     0
291
     1
 45
0.0
1001
ACAD
1000
AcDbSavedByObjectVersion
1070
     0
  0
VISUALSTYLE
  5
2C
102
{ACAD_REACTORS
330
2A
102
}
330
2A
100
AcDbVisualStyle
  2
FlatWithEdges
 70
     1
 71
     2
 72
     1
 73
     1
 90
        2
 40
-0.6
 41
30.0
 62
     5
 63
     7
 74
     1
 91
        4
 64
     7
 65
   257
 75
     1
175
     1
 42
1.0
 92
        0
 66
   257
 43
1.0
 76
     1
 77
     6
 78
     2
 67
     7
 79
     5
170
     0
171
     0
290
     0
174
     0
 93
       13
 44
0.0
173
     0
291
     1
 45
0.0
1001
ACAD
1000
AcDbSavedByObjectVersion
1070
     0
  0
VISUALSTYLE
  5
2D
102
{ACAD_REACTORS
330
2A
102
}
330
2A
100
AcDbVisualStyle
  2
Gouraud
 70
     2
 71
     2
 72
     2
 73
     1
 90
        2
 40
-0.6
 41
30.0
 62
     5
 63
     7
 74
     0
 91
        4
 64
     7
 65
   257
 75
     1
175
     1
 42
1.0
 92
        0
 66
     7
 43
1.0
 76
     1
 77
     6
 78
     2
 67
     7
 79
     5
170
     0
171
     0
290
     0
174
     0
 93
       13
 44
0.0
173
     0
291
     1
 45
0.0
1001
ACAD
1000
AcDbSavedByObjectVersion
1070
     0
  0
VISUALSTYLE
  5
2E
102
{ACAD_REACTORS
330
2A
102
}
330
2A
100
AcDbVisualStyle
  2
GouraudWithEdges
 70
     3
 71
     2
 72
     2
 73
     1
 90
        2
 40
-0.6
 41
30.0
 62
     5
 63
     7
 74
     1
 91
        4
 64
     7
 65
   257
 75
     1
175
     1
 42
1.0
 92
        0
 66
   257
 43
1.0
 76
     1
 77
     6
 78
     2
 67
     7
 79
     5
170
     0
171
     0
290
     0
174
     0
 93
       13
 44
0.0
173
     0
291
     1
 45
0.0
1001
ACAD
1000
AcDbSavedByObjectVersion
1070
     0
  0
VISUALSTYLE
  5
38
102
{ACAD_REACTORS
330
2A
102
}
330
2A
100
AcDbVisualStyle
  2
Linepattern
 70
    14
 71
     2
 72
     2
 73
     0
 90
        0
 40
-0.6
 41
-30.0
 62
     5
 63
     7
 74
     1
 91
        4
 64
     7
 65
   257
 75
     7
175
     7
 42
1.0
 92
        8
 66
     7
 43
1.0
 76
     1
 77
     6
 78
     2
 67
     7
 79
     5
170
     0
171
     0
290
     0
174
     0
 93
        1
 44
0.0
173
     0
291
     1
 45
0.0
1001
ACAD
1000
AcDbSavedByObjectVersion
1070
     0
  0
VISUALSTYLE
  5
33
102
{ACAD_REACTORS
330
2A
102
}
330
2A
100
AcDbVisualStyle
  2
Realistic
 70
     8
 71
     2
 72
     2
 73
     0
 90
        0
 40
-0.6
 41
-30.0
 62
     5
 63
     7
 74
     1
 91
        0
 64
     7
 65
   257
 75
     1
175
     1
 42
1.0
 92
        8
 66
     8
 43
1.0
 76
     1
 77
     6
 78
     2
 67
     7
 79
     5
170
     0
171
     0
290
     0
174
     0
 93
       13
 44
0.0
173
     0
291
     0
 45
0.0
1001
ACAD
1000
AcDbSavedByObjectVersion
1070
     0
  0
VISUALSTYLE
  5
37
102
{ACAD_REACTORS
330
2A
102
}
330
2A
100
AcDbVisualStyle
  2
Thicken
 70
    13
 71
     2
 72
     2
 73
     0
 90
        0
 40
-0.6
 41
-30.0
 62
     5
 63
     7
 74
     1
 91
        4
 64
     7
 65
   257
 75
     1
175
     1
 42
1.0
 92
       12
 66
     7
 43
1.0
 76
     1
 77
     6
 78
     2
 67
     7
 79
     5
170
     0
171
     0
290
     0
174
     0
 93
        1
 44
0.0
173
     0
291
     1
 45
0.0
1001
ACAD
1000
AcDbSavedByObjectVersion
1070
     0
  0
ENDSEC
  0
EOF
